<svg xmlns="http://www.w3.org/2000/svg" width="13.386" height="24" viewBox="0 0 13.386 24">
  <path id="arrow_forward_ios_FILL0_wght400_GRAD0_opsz48" d="M26.249,28.348a1.321,1.321,0,0,0,.36-.877,1.147,1.147,0,0,0-.36-.877l-9.863-9.863,9.863-9.863a1.224,1.224,0,0,0,.36-.861,1.166,1.166,0,0,0-.36-.892A1.21,1.21,0,0,0,24.5,5.085l-10.99,10.99a.954.954,0,0,0-.219.313.978.978,0,0,0,0,.689.954.954,0,0,0,.219.313L24.5,28.38a1.168,1.168,0,0,0,.861.344A1.219,1.219,0,0,0,26.249,28.348Z" transform="translate(-13.224 -4.724)" fill="#23241f"/>
</svg>
