<svg xmlns="http://www.w3.org/2000/svg" width="13.386" height="24" viewBox="0 0 13.386 24">
  <path id="arrow_forward_ios_FILL0_wght400_GRAD0_opsz48" d="M13.585,28.348a1.321,1.321,0,0,1-.36-.877,1.147,1.147,0,0,1,.36-.877l9.863-9.863L13.585,6.869a1.224,1.224,0,0,1-.36-.861,1.166,1.166,0,0,1,.36-.892,1.21,1.21,0,0,1,1.753-.031l10.99,10.99a.954.954,0,0,1,.219.313.978.978,0,0,1,0,.689.954.954,0,0,1-.219.313L15.338,28.38a1.168,1.168,0,0,1-.861.344A1.219,1.219,0,0,1,13.585,28.348Z" transform="translate(-13.224 -4.724)" fill="#23241f"/>
</svg>
